<?xml version="1.0" encoding="UTF-8" standalone="no"?>
<!DOCTYPE svg PUBLIC "-//W3C//DTD SVG 1.1//EN"
 "http://www.w3.org/Graphics/SVG/1.1/DTD/svg11.dtd">
<!-- Generated by graphviz version 7.1.0 (20230121.1956)
 -->
<!-- Title: dependency&#45;cruiser output Pages: 1 -->
<svg width="431pt" height="350pt"
 viewBox="0.00 0.00 431.00 350.00" xmlns="http://www.w3.org/2000/svg" xmlns:xlink="http://www.w3.org/1999/xlink">
<g id="graph0" class="graph" transform="scale(1 1) rotate(0) translate(4 346)">
<title>dependency&#45;cruiser output</title>
<polygon fill="white" stroke="none" points="-4,4 -4,-346 427,-346 427,4 -4,4"/>
<g id="clust1" class="cluster">
<title>cluster_src</title>
<path fill="#ffffff" stroke="black" stroke-width="2" d="M20,-8C20,-8 403,-8 403,-8 409,-8 415,-14 415,-20 415,-20 415,-322 415,-322 415,-328 409,-334 403,-334 403,-334 20,-334 20,-334 14,-334 8,-328 8,-322 8,-322 8,-20 8,-20 8,-14 14,-8 20,-8"/>
<text text-anchor="middle" x="211.5" y="-322.8" font-family="Helvetica,sans-Serif" font-weight="bold" font-size="9.00">src</text>
</g>
<g id="clust2" class="cluster">
<title>cluster_src/components</title>
<path fill="#ffffff" stroke="black" stroke-width="2" d="M255,-136C255,-136 395,-136 395,-136 401,-136 407,-142 407,-148 407,-148 407,-206 407,-206 407,-212 401,-218 395,-218 395,-218 255,-218 255,-218 249,-218 243,-212 243,-206 243,-206 243,-148 243,-148 243,-142 249,-136 255,-136"/>
<text text-anchor="middle" x="325" y="-206.8" font-family="Helvetica,sans-Serif" font-weight="bold" font-size="9.00">components</text>
</g>
<g id="clust3" class="cluster">
<title>cluster_src/hooks</title>
<path fill="#ffffff" stroke="black" stroke-width="2" d="M242,-226C242,-226 394,-226 394,-226 400,-226 406,-232 406,-238 406,-238 406,-296 406,-296 406,-302 400,-308 394,-308 394,-308 242,-308 242,-308 236,-308 230,-302 230,-296 230,-296 230,-238 230,-238 230,-232 236,-226 242,-226"/>
<text text-anchor="middle" x="318" y="-296.8" font-family="Helvetica,sans-Serif" font-weight="bold" font-size="9.00">hooks</text>
</g>
<g id="clust4" class="cluster">
<title>cluster_src/pages</title>
<path fill="#ffffff" stroke="black" stroke-width="2" d="M157,-16C157,-16 310,-16 310,-16 316,-16 322,-22 322,-28 322,-28 322,-116 322,-116 322,-122 316,-128 310,-128 310,-128 157,-128 157,-128 151,-128 145,-122 145,-116 145,-116 145,-28 145,-28 145,-22 151,-16 157,-16"/>
<text text-anchor="middle" x="233.5" y="-116.8" font-family="Helvetica,sans-Serif" font-weight="bold" font-size="9.00">pages</text>
</g>
<!-- src/App.js -->
<g id="node1" class="node">
<title>src/App.js</title>
<g id="a_node1"><a xlink:href="src/App.js" xlink:title="App.js">
<path fill="#ffffcc" stroke="black" d="M131,-128C131,-128 89,-128 89,-128 86,-128 83,-125 83,-122 83,-122 83,-116 83,-116 83,-113 86,-110 89,-110 89,-110 131,-110 131,-110 134,-110 137,-113 137,-116 137,-116 137,-122 137,-122 137,-125 134,-128 131,-128"/>
<text text-anchor="start" x="97" y="-116.8" font-family="Helvetica,sans-Serif" font-size="9.00">App.js</text>
</a>
</g>
</g>
<!-- src/pages/AppLayout.js -->
<g id="node2" class="node">
<title>src/pages/AppLayout.js</title>
<g id="a_node2"><a xlink:href="src/pages/AppLayout.js" xlink:title="AppLayout.js">
<path fill="#ffffcc" stroke="black" d="M216,-102C216,-102 159,-102 159,-102 156,-102 153,-99 153,-96 153,-96 153,-90 153,-90 153,-87 156,-84 159,-84 159,-84 216,-84 216,-84 219,-84 222,-87 222,-90 222,-90 222,-96 222,-96 222,-99 219,-102 216,-102"/>
<text text-anchor="start" x="161" y="-90.8" font-family="Helvetica,sans-Serif" font-size="9.00">AppLayout.js</text>
</a>
</g>
</g>
<!-- src/App.js&#45;&gt;src/pages/AppLayout.js -->
<g id="edge1" class="edge">
<title>src/App.js&#45;&gt;src/pages/AppLayout.js</title>
<path fill="none" stroke="#000000" stroke-width="2" stroke-opacity="0.200000" d="M135.08,-109.58C138.4,-108.35 141.78,-107.12 145,-106 145.75,-105.74 146.51,-105.48 147.27,-105.22"/>
<polygon fill="#000000" fill-opacity="0.200000" stroke="#000000" stroke-width="2" stroke-opacity="0.200000" points="147.71,-107.29 152.74,-103.4 146.38,-103.3 147.71,-107.29"/>
</g>
<!-- src/settings.js -->
<g id="node3" class="node">
<title>src/settings.js</title>
<g id="a_node3"><a xlink:href="src/settings.js" xlink:title="settings.js">
<path fill="#ffffcc" stroke="black" d="M211,-154C211,-154 164,-154 164,-154 161,-154 158,-151 158,-148 158,-148 158,-142 158,-142 158,-139 161,-136 164,-136 164,-136 211,-136 211,-136 214,-136 217,-139 217,-142 217,-142 217,-148 217,-148 217,-151 214,-154 211,-154"/>
<text text-anchor="start" x="166" y="-142.8" font-family="Helvetica,sans-Serif" font-size="9.00">settings.js</text>
</a>
</g>
</g>
<!-- src/App.js&#45;&gt;src/settings.js -->
<g id="edge2" class="edge">
<title>src/App.js&#45;&gt;src/settings.js</title>
<path fill="none" stroke="#000000" stroke-width="2" stroke-opacity="0.200000" d="M137.34,-128.34C139.93,-129.24 142.51,-130.14 145,-131 146.62,-131.56 148.27,-132.13 149.94,-132.7"/>
<polygon fill="#000000" fill-opacity="0.200000" stroke="#000000" stroke-width="2" stroke-opacity="0.200000" points="149.13,-134.64 155.49,-134.59 150.49,-130.67 149.13,-134.64"/>
</g>
<!-- src/components/Centered.js -->
<g id="node4" class="node">
<title>src/components/Centered.js</title>
<g id="a_node4"><a xlink:href="src/components/Centered.js" xlink:title="Centered.js">
<path fill="#ffffcc" stroke="black" d="M393,-192C393,-192 340,-192 340,-192 337,-192 334,-189 334,-186 334,-186 334,-180 334,-180 334,-177 337,-174 340,-174 340,-174 393,-174 393,-174 396,-174 399,-177 399,-180 399,-180 399,-186 399,-186 399,-189 396,-192 393,-192"/>
<text text-anchor="start" x="342" y="-180.8" font-family="Helvetica,sans-Serif" font-size="9.00">Centered.js</text>
</a>
</g>
</g>
<!-- src/pages/AppLayout.js&#45;&gt;src/components/Centered.js -->
<g id="edge9" class="edge">
<title>src/pages/AppLayout.js&#45;&gt;src/components/Centered.js</title>
<path fill="none" stroke="#000000" stroke-width="2" stroke-opacity="0.200000" d="M214.36,-102.49C219.53,-104.35 224.93,-106.26 230,-108 270.67,-121.98 290.61,-108.6 322,-138 330.92,-146.36 326.23,-154.64 334.93,-166.83"/>
<polygon fill="#000000" fill-opacity="0.200000" stroke="#000000" stroke-width="2" stroke-opacity="0.200000" points="333.32,-168.18 338.85,-171.31 336.48,-165.41 333.32,-168.18"/>
</g>
<!-- src/components/Footer.js -->
<g id="node6" class="node">
<title>src/components/Footer.js</title>
<g id="a_node6"><a xlink:href="src/components/Footer.js" xlink:title="Footer.js">
<path fill="#ffffcc" stroke="black" d="M300.5,-192C300.5,-192 258.5,-192 258.5,-192 255.5,-192 252.5,-189 252.5,-186 252.5,-186 252.5,-180 252.5,-180 252.5,-177 255.5,-174 258.5,-174 258.5,-174 300.5,-174 300.5,-174 303.5,-174 306.5,-177 306.5,-180 306.5,-180 306.5,-186 306.5,-186 306.5,-189 303.5,-192 300.5,-192"/>
<text text-anchor="start" x="261" y="-180.8" font-family="Helvetica,sans-Serif" font-size="9.00">Footer.js</text>
</a>
</g>
</g>
<!-- src/pages/AppLayout.js&#45;&gt;src/components/Footer.js -->
<g id="edge10" class="edge">
<title>src/pages/AppLayout.js&#45;&gt;src/components/Footer.js</title>
<path fill="none" stroke="#000000" stroke-width="2" stroke-opacity="0.200000" d="M218.32,-102.3C219.68,-103.4 220.92,-104.62 222,-106 239.13,-127.87 212.11,-146.74 230,-168 233.65,-172.34 238.53,-175.44 243.78,-177.66"/>
<polygon fill="#000000" fill-opacity="0.200000" stroke="#000000" stroke-width="2" stroke-opacity="0.200000" points="243.01,-179.61 249.36,-179.51 244.33,-175.63 243.01,-179.61"/>
</g>
<!-- src/components/Header.js -->
<g id="node7" class="node">
<title>src/components/Header.js</title>
<g id="a_node7"><a xlink:href="src/components/Header.js" xlink:title="Header.js">
<path fill="#ffffcc" stroke="black" d="M302,-162C302,-162 257,-162 257,-162 254,-162 251,-159 251,-156 251,-156 251,-150 251,-150 251,-147 254,-144 257,-144 257,-144 302,-144 302,-144 305,-144 308,-147 308,-150 308,-150 308,-156 308,-156 308,-159 305,-162 302,-162"/>
<text text-anchor="start" x="259" y="-150.8" font-family="Helvetica,sans-Serif" font-size="9.00">Header.js</text>
</a>
</g>
</g>
<!-- src/pages/AppLayout.js&#45;&gt;src/components/Header.js -->
<g id="edge11" class="edge">
<title>src/pages/AppLayout.js&#45;&gt;src/components/Header.js</title>
<path fill="none" stroke="#000000" stroke-width="2" stroke-opacity="0.200000" d="M217.73,-102.32C219.28,-103.42 220.72,-104.64 222,-106 230,-114.49 222.24,-122.29 230,-131 233.63,-135.08 238.17,-138.45 243,-141.21"/>
<polygon fill="#000000" fill-opacity="0.200000" stroke="#000000" stroke-width="2" stroke-opacity="0.200000" points="241.73,-142.93 248.04,-143.73 243.61,-139.17 241.73,-142.93"/>
</g>
<!-- src/hooks/useLaunches.js -->
<g id="node9" class="node">
<title>src/hooks/useLaunches.js</title>
<g id="a_node9"><a xlink:href="src/hooks/useLaunches.js" xlink:title="useLaunches.js">
<path fill="#ffffcc" stroke="black" d="M315,-282C315,-282 244,-282 244,-282 241,-282 238,-279 238,-276 238,-276 238,-270 238,-270 238,-267 241,-264 244,-264 244,-264 315,-264 315,-264 318,-264 321,-267 321,-270 321,-270 321,-276 321,-276 321,-279 318,-282 315,-282"/>
<text text-anchor="start" x="246" y="-270.8" font-family="Helvetica,sans-Serif" font-size="9.00">useLaunches.js</text>
</a>
</g>
</g>
<!-- src/pages/AppLayout.js&#45;&gt;src/hooks/useLaunches.js -->
<g id="edge12" class="edge">
<title>src/pages/AppLayout.js&#45;&gt;src/hooks/useLaunches.js</title>
<path fill="none" stroke="#000000" stroke-width="2" stroke-opacity="0.200000" d="M218.73,-102.44C219.95,-103.51 221.05,-104.69 222,-106 241.83,-133.4 209.22,-231.31 230,-258 230.41,-258.52 230.83,-259.03 231.27,-259.51"/>
<polygon fill="#000000" fill-opacity="0.200000" stroke="#000000" stroke-width="2" stroke-opacity="0.200000" points="229.52,-260.79 235.48,-262.99 232.19,-257.55 229.52,-260.79"/>
</g>
<!-- src/hooks/usePlanets.js -->
<g id="node10" class="node">
<title>src/hooks/usePlanets.js</title>
<g id="a_node10"><a xlink:href="src/hooks/usePlanets.js" xlink:title="usePlanets.js">
<path fill="#ffffcc" stroke="black" d="M310.5,-252C310.5,-252 248.5,-252 248.5,-252 245.5,-252 242.5,-249 242.5,-246 242.5,-246 242.5,-240 242.5,-240 242.5,-237 245.5,-234 248.5,-234 248.5,-234 310.5,-234 310.5,-234 313.5,-234 316.5,-237 316.5,-240 316.5,-240 316.5,-246 316.5,-246 316.5,-249 313.5,-252 310.5,-252"/>
<text text-anchor="start" x="250.5" y="-240.8" font-family="Helvetica,sans-Serif" font-size="9.00">usePlanets.js</text>
</a>
</g>
</g>
<!-- src/pages/AppLayout.js&#45;&gt;src/hooks/usePlanets.js -->
<g id="edge13" class="edge">
<title>src/pages/AppLayout.js&#45;&gt;src/hooks/usePlanets.js</title>
<path fill="none" stroke="#000000" stroke-width="2" stroke-opacity="0.200000" d="M218.7,-102.46C219.93,-103.52 221.04,-104.69 222,-106 237.2,-126.62 215.38,-199.96 230,-221 232.14,-224.08 234.81,-226.73 237.8,-229.02"/>
<polygon fill="#000000" fill-opacity="0.200000" stroke="#000000" stroke-width="2" stroke-opacity="0.200000" points="236.48,-230.67 242.68,-232.1 238.73,-227.12 236.48,-230.67"/>
</g>
<!-- src/pages/History.js -->
<g id="node12" class="node">
<title>src/pages/History.js</title>
<g id="a_node12"><a xlink:href="src/pages/History.js" xlink:title="History.js">
<path fill="#ffffcc" stroke="black" d="M301,-102C301,-102 258,-102 258,-102 255,-102 252,-99 252,-96 252,-96 252,-90 252,-90 252,-87 255,-84 258,-84 258,-84 301,-84 301,-84 304,-84 307,-87 307,-90 307,-90 307,-96 307,-96 307,-99 304,-102 301,-102"/>
<text text-anchor="start" x="260" y="-90.8" font-family="Helvetica,sans-Serif" font-size="9.00">History.js</text>
</a>
</g>
</g>
<!-- src/pages/AppLayout.js&#45;&gt;src/pages/History.js -->
<g id="edge14" class="edge">
<title>src/pages/AppLayout.js&#45;&gt;src/pages/History.js</title>
<path fill="none" stroke="#000000" stroke-width="2" stroke-opacity="0.200000" d="M222.27,-93C228.92,-93 235.92,-93 242.64,-93"/>
<polygon fill="#000000" fill-opacity="0.200000" stroke="#000000" stroke-width="2" stroke-opacity="0.200000" points="242.54,-95.1 248.54,-93 242.54,-90.9 242.54,-95.1"/>
</g>
<!-- src/pages/Launch.js -->
<g id="node13" class="node">
<title>src/pages/Launch.js</title>
<g id="a_node13"><a xlink:href="src/pages/Launch.js" xlink:title="Launch.js">
<path fill="#ffffcc" stroke="black" d="M302,-42C302,-42 257,-42 257,-42 254,-42 251,-39 251,-36 251,-36 251,-30 251,-30 251,-27 254,-24 257,-24 257,-24 302,-24 302,-24 305,-24 308,-27 308,-30 308,-30 308,-36 308,-36 308,-39 305,-42 302,-42"/>
<text text-anchor="start" x="259" y="-30.8" font-family="Helvetica,sans-Serif" font-size="9.00">Launch.js</text>
</a>
</g>
</g>
<!-- src/pages/AppLayout.js&#45;&gt;src/pages/Launch.js -->
<g id="edge15" class="edge">
<title>src/pages/AppLayout.js&#45;&gt;src/pages/Launch.js</title>
<path fill="none" stroke="#000000" stroke-width="2" stroke-opacity="0.200000" d="M194.75,-83.72C202.06,-73.54 215.08,-57.41 230,-48 233.82,-45.59 238.04,-43.55 242.37,-41.82"/>
<polygon fill="#000000" fill-opacity="0.200000" stroke="#000000" stroke-width="2" stroke-opacity="0.200000" points="242.91,-43.85 247.86,-39.87 241.51,-39.89 242.91,-43.85"/>
</g>
<!-- src/pages/Upcoming.js -->
<g id="node14" class="node">
<title>src/pages/Upcoming.js</title>
<g id="a_node14"><a xlink:href="src/pages/Upcoming.js" xlink:title="Upcoming.js">
<path fill="#ffffcc" stroke="black" d="M308,-72C308,-72 251,-72 251,-72 248,-72 245,-69 245,-66 245,-66 245,-60 245,-60 245,-57 248,-54 251,-54 251,-54 308,-54 308,-54 311,-54 314,-57 314,-60 314,-60 314,-66 314,-66 314,-69 311,-72 308,-72"/>
<text text-anchor="start" x="253" y="-60.8" font-family="Helvetica,sans-Serif" font-size="9.00">Upcoming.js</text>
</a>
</g>
</g>
<!-- src/pages/AppLayout.js&#45;&gt;src/pages/Upcoming.js -->
<g id="edge16" class="edge">
<title>src/pages/AppLayout.js&#45;&gt;src/pages/Upcoming.js</title>
<path fill="none" stroke="#000000" stroke-width="2" stroke-opacity="0.200000" d="M213.89,-83.61C219.2,-81.71 224.77,-79.75 230,-78 232.84,-77.05 235.79,-76.08 238.76,-75.13"/>
<polygon fill="#000000" fill-opacity="0.200000" stroke="#000000" stroke-width="2" stroke-opacity="0.200000" points="239.16,-77.2 244.24,-73.38 237.88,-73.2 239.16,-77.2"/>
</g>
<!-- src/components/Clickable.js -->
<g id="node5" class="node">
<title>src/components/Clickable.js</title>
<g id="a_node5"><a xlink:href="src/components/Clickable.js" xlink:title="Clickable.js">
<path fill="#ffffcc" stroke="black" d="M393,-162C393,-162 340,-162 340,-162 337,-162 334,-159 334,-156 334,-156 334,-150 334,-150 334,-147 337,-144 340,-144 340,-144 393,-144 393,-144 396,-144 399,-147 399,-150 399,-150 399,-156 399,-156 399,-159 396,-162 393,-162"/>
<text text-anchor="start" x="342" y="-150.8" font-family="Helvetica,sans-Serif" font-size="9.00">Clickable.js</text>
</a>
</g>
</g>
<!-- src/components/Footer.js&#45;&gt;src/components/Centered.js -->
<g id="edge3" class="edge">
<title>src/components/Footer.js&#45;&gt;src/components/Centered.js</title>
<path fill="none" stroke="#000000" stroke-width="2" stroke-opacity="0.200000" d="M306.93,-183C312.63,-183 318.78,-183 324.87,-183"/>
<polygon fill="#000000" fill-opacity="0.200000" stroke="#000000" stroke-width="2" stroke-opacity="0.200000" points="324.68,-185.1 330.68,-183 324.68,-180.9 324.68,-185.1"/>
</g>
<!-- src/components/Header.js&#45;&gt;src/components/Centered.js -->
<g id="edge4" class="edge">
<title>src/components/Header.js&#45;&gt;src/components/Centered.js</title>
<path fill="none" stroke="#000000" stroke-width="2" stroke-opacity="0.200000" d="M307.39,-162.49C314.75,-165.09 322.84,-167.94 330.57,-170.67"/>
<polygon fill="#000000" fill-opacity="0.200000" stroke="#000000" stroke-width="2" stroke-opacity="0.200000" points="329.57,-172.55 335.93,-172.56 330.97,-168.58 329.57,-172.55"/>
</g>
<!-- src/components/Header.js&#45;&gt;src/components/Clickable.js -->
<g id="edge5" class="edge">
<title>src/components/Header.js&#45;&gt;src/components/Clickable.js</title>
<path fill="none" stroke="#000000" stroke-width="2" stroke-opacity="0.200000" d="M308.33,-153C313.67,-153 319.36,-153 325,-153"/>
<polygon fill="#000000" fill-opacity="0.200000" stroke="#000000" stroke-width="2" stroke-opacity="0.200000" points="324.75,-155.1 330.75,-153 324.75,-150.9 324.75,-155.1"/>
</g>
<!-- src/hooks/requests.js -->
<g id="node8" class="node">
<title>src/hooks/requests.js</title>
<g id="a_node8"><a xlink:href="src/hooks/requests.js" xlink:title="requests.js">
<path fill="#ffffcc" stroke="black" d="M392,-267C392,-267 341,-267 341,-267 338,-267 335,-264 335,-261 335,-261 335,-255 335,-255 335,-252 338,-249 341,-249 341,-249 392,-249 392,-249 395,-249 398,-252 398,-255 398,-255 398,-261 398,-261 398,-264 395,-267 392,-267"/>
<text text-anchor="start" x="343" y="-255.8" font-family="Helvetica,sans-Serif" font-size="9.00">requests.js</text>
</a>
</g>
</g>
<!-- src/hooks/useLaunches.js&#45;&gt;src/hooks/requests.js -->
<g id="edge6" class="edge">
<title>src/hooks/useLaunches.js&#45;&gt;src/hooks/requests.js</title>
<path fill="none" stroke="#000000" stroke-width="2" stroke-opacity="0.200000" d="M321.01,-265.85C322.74,-265.55 324.48,-265.24 326.21,-264.93"/>
<polygon fill="#000000" fill-opacity="0.200000" stroke="#000000" stroke-width="2" stroke-opacity="0.200000" points="326.21,-267.07 331.76,-263.95 325.48,-262.93 326.21,-267.07"/>
</g>
<!-- src/hooks/usePlanets.js&#45;&gt;src/hooks/requests.js -->
<g id="edge7" class="edge">
<title>src/hooks/usePlanets.js&#45;&gt;src/hooks/requests.js</title>
<path fill="none" stroke="#000000" stroke-width="2" stroke-opacity="0.200000" d="M316.55,-249.36C319.63,-249.9 322.75,-250.46 325.86,-251"/>
<polygon fill="#000000" fill-opacity="0.200000" stroke="#000000" stroke-width="2" stroke-opacity="0.200000" points="325.25,-253.03 331.52,-252 325.98,-248.89 325.25,-253.03"/>
</g>
<!-- src/index.js -->
<g id="node11" class="node">
<title>src/index.js</title>
<g id="a_node11"><a xlink:href="src/index.js" xlink:title="index.js">
<path fill="#ffffcc" stroke="black" d="M64,-128C64,-128 22,-128 22,-128 19,-128 16,-125 16,-122 16,-122 16,-116 16,-116 16,-113 19,-110 22,-110 22,-110 64,-110 64,-110 67,-110 70,-113 70,-116 70,-116 70,-122 70,-122 70,-125 67,-128 64,-128"/>
<text text-anchor="start" x="27" y="-116.8" font-family="Helvetica,sans-Serif" font-size="9.00">index.js</text>
</a>
</g>
</g>
<!-- src/index.js&#45;&gt;src/App.js -->
<g id="edge8" class="edge">
<title>src/index.js&#45;&gt;src/App.js</title>
<path fill="none" stroke="#000000" stroke-width="2" stroke-opacity="0.200000" d="M70.44,-119C71.58,-119 72.74,-119 73.9,-119"/>
<polygon fill="#000000" fill-opacity="0.200000" stroke="#000000" stroke-width="2" stroke-opacity="0.200000" points="73.77,-121.1 79.77,-119 73.77,-116.9 73.77,-121.1"/>
</g>
<!-- src/pages/Launch.js&#45;&gt;src/components/Clickable.js -->
<g id="edge17" class="edge">
<title>src/pages/Launch.js&#45;&gt;src/components/Clickable.js</title>
<path fill="none" stroke="#000000" stroke-width="2" stroke-opacity="0.200000" d="M308.25,-39.38C313.26,-41.5 318.12,-44.3 322,-48 346.85,-71.73 358.02,-111.76 362.62,-134.93"/>
<polygon fill="#000000" fill-opacity="0.200000" stroke="#000000" stroke-width="2" stroke-opacity="0.200000" points="360.54,-135.23 363.68,-140.76 364.67,-134.48 360.54,-135.23"/>
</g>
<!-- src/pages/Upcoming.js&#45;&gt;src/components/Clickable.js -->
<g id="edge18" class="edge">
<title>src/pages/Upcoming.js&#45;&gt;src/components/Clickable.js</title>
<path fill="none" stroke="#000000" stroke-width="2" stroke-opacity="0.200000" d="M313.42,-72.38C316.49,-73.98 319.41,-75.84 322,-78 340.23,-93.23 352.51,-118.17 359.25,-135.08"/>
<polygon fill="#000000" fill-opacity="0.200000" stroke="#000000" stroke-width="2" stroke-opacity="0.200000" points="357.29,-135.82 361.36,-140.69 361.22,-134.34 357.29,-135.82"/>
</g>
</g>
</svg>
