<?xml version="1.0" encoding="UTF-8" standalone="no"?>
<!DOCTYPE svg PUBLIC "-//W3C//DTD SVG 1.1//EN"
 "http://www.w3.org/Graphics/SVG/1.1/DTD/svg11.dtd">
<!-- Generated by graphviz version 7.1.0 (20230121.1956)
 -->
<!-- Title: dependency&#45;cruiser output Pages: 1 -->
<svg width="636pt" height="244pt"
 viewBox="0.00 0.00 636.00 244.00" xmlns="http://www.w3.org/2000/svg" xmlns:xlink="http://www.w3.org/1999/xlink">
<g id="graph0" class="graph" transform="scale(1 1) rotate(0) translate(4 240)">
<title>dependency&#45;cruiser output</title>
<polygon fill="white" stroke="none" points="-4,4 -4,-240 632,-240 632,4 -4,4"/>
<g id="clust1" class="cluster">
<title>cluster_src</title>
<path fill="#ffffff" stroke="black" stroke-width="2" d="M20,-8C20,-8 608,-8 608,-8 614,-8 620,-14 620,-20 620,-20 620,-216 620,-216 620,-222 614,-228 608,-228 608,-228 20,-228 20,-228 14,-228 8,-222 8,-216 8,-216 8,-20 8,-20 8,-14 14,-8 20,-8"/>
<text text-anchor="middle" x="314" y="-216.8" font-family="Helvetica,sans-Serif" font-weight="bold" font-size="9.00">src</text>
</g>
<g id="clust2" class="cluster">
<title>cluster_src/models</title>
<path fill="#ffffff" stroke="black" stroke-width="2" d="M406,-84C406,-84 600,-84 600,-84 606,-84 612,-90 612,-96 612,-96 612,-154 612,-154 612,-160 606,-166 600,-166 600,-166 406,-166 406,-166 400,-166 394,-160 394,-154 394,-154 394,-96 394,-96 394,-90 400,-84 406,-84"/>
<text text-anchor="middle" x="503" y="-154.8" font-family="Helvetica,sans-Serif" font-weight="bold" font-size="9.00">models</text>
</g>
<g id="clust3" class="cluster">
<title>cluster_src/routes</title>
<path fill="#ffffff" stroke="black" stroke-width="2" d="M157,-16C157,-16 374,-16 374,-16 380,-16 386,-22 386,-28 386,-28 386,-180 386,-180 386,-186 380,-192 374,-192 374,-192 157,-192 157,-192 151,-192 145,-186 145,-180 145,-180 145,-28 145,-28 145,-22 151,-16 157,-16"/>
<text text-anchor="middle" x="265.5" y="-180.8" font-family="Helvetica,sans-Serif" font-weight="bold" font-size="9.00">routes</text>
</g>
<g id="clust4" class="cluster">
<title>cluster_src/routes/launches</title>
<path fill="#ffffff" stroke="black" stroke-width="2" d="M165,-24C165,-24 366,-24 366,-24 372,-24 378,-30 378,-36 378,-36 378,-94 378,-94 378,-100 372,-106 366,-106 366,-106 165,-106 165,-106 159,-106 153,-100 153,-94 153,-94 153,-36 153,-36 153,-30 159,-24 165,-24"/>
<text text-anchor="middle" x="265.5" y="-94.8" font-family="Helvetica,sans-Serif" font-weight="bold" font-size="9.00">launches</text>
</g>
<g id="clust5" class="cluster">
<title>cluster_src/routes/planets</title>
<path fill="#ffffff" stroke="black" stroke-width="2" d="M169,-114C169,-114 362.5,-114 362.5,-114 368.5,-114 374.5,-120 374.5,-126 374.5,-126 374.5,-154 374.5,-154 374.5,-160 368.5,-166 362.5,-166 362.5,-166 169,-166 169,-166 163,-166 157,-160 157,-154 157,-154 157,-126 157,-126 157,-120 163,-114 169,-114"/>
<text text-anchor="middle" x="265.75" y="-154.8" font-family="Helvetica,sans-Serif" font-weight="bold" font-size="9.00">planets</text>
</g>
<!-- src/app.js -->
<g id="node1" class="node">
<title>src/app.js</title>
<g id="a_node1"><a xlink:href="src/app.js" xlink:title="app.js">
<path fill="#ffffcc" stroke="black" d="M131,-110C131,-110 89,-110 89,-110 86,-110 83,-107 83,-104 83,-104 83,-98 83,-98 83,-95 86,-92 89,-92 89,-92 131,-92 131,-92 134,-92 137,-95 137,-98 137,-98 137,-104 137,-104 137,-107 134,-110 131,-110"/>
<text text-anchor="start" x="97" y="-98.8" font-family="Helvetica,sans-Serif" font-size="9.00">app.js</text>
</a>
</g>
</g>
<!-- src/routes/launches/launches.router.js -->
<g id="node2" class="node">
<title>src/routes/launches/launches.router.js</title>
<g id="a_node2"><a xlink:href="src/routes/launches/launches.router.js" xlink:title="launches.router.js">
<path fill="#ffffcc" stroke="black" d="M246,-80C246,-80 167,-80 167,-80 164,-80 161,-77 161,-74 161,-74 161,-68 161,-68 161,-65 164,-62 167,-62 167,-62 246,-62 246,-62 249,-62 252,-65 252,-68 252,-68 252,-74 252,-74 252,-77 249,-80 246,-80"/>
<text text-anchor="start" x="169" y="-68.8" font-family="Helvetica,sans-Serif" font-size="9.00">launches.router.js</text>
</a>
</g>
</g>
<!-- src/app.js&#45;&gt;src/routes/launches/launches.router.js -->
<g id="edge1" class="edge">
<title>src/app.js&#45;&gt;src/routes/launches/launches.router.js</title>
<path fill="none" stroke="#000000" stroke-width="2" stroke-opacity="0.200000" d="M137.32,-92.64C146.53,-89.72 157.07,-86.37 167.06,-83.2"/>
<polygon fill="#000000" fill-opacity="0.200000" stroke="#000000" stroke-width="2" stroke-opacity="0.200000" points="167.69,-85.21 172.77,-81.39 166.41,-81.2 167.69,-85.21"/>
</g>
<!-- src/routes/planets/planets.router.js -->
<g id="node3" class="node">
<title>src/routes/planets/planets.router.js</title>
<g id="a_node3"><a xlink:href="src/routes/planets/planets.router.js" xlink:title="planets.router.js">
<path fill="#ffffcc" stroke="black" d="M242,-140C242,-140 171,-140 171,-140 168,-140 165,-137 165,-134 165,-134 165,-128 165,-128 165,-125 168,-122 171,-122 171,-122 242,-122 242,-122 245,-122 248,-125 248,-128 248,-128 248,-134 248,-134 248,-137 245,-140 242,-140"/>
<text text-anchor="start" x="173" y="-128.8" font-family="Helvetica,sans-Serif" font-size="9.00">planets.router.js</text>
</a>
</g>
</g>
<!-- src/app.js&#45;&gt;src/routes/planets/planets.router.js -->
<g id="edge2" class="edge">
<title>src/app.js&#45;&gt;src/routes/planets/planets.router.js</title>
<path fill="none" stroke="#000000" stroke-width="2" stroke-opacity="0.200000" d="M137.32,-109.36C146.53,-112.28 157.07,-115.63 167.06,-118.8"/>
<polygon fill="#000000" fill-opacity="0.200000" stroke="#000000" stroke-width="2" stroke-opacity="0.200000" points="166.41,-120.8 172.77,-120.61 167.69,-116.79 166.41,-120.8"/>
</g>
<!-- src/routes/launches/launches.controller.js -->
<g id="node8" class="node">
<title>src/routes/launches/launches.controller.js</title>
<g id="a_node8"><a xlink:href="src/routes/launches/launches.controller.js" xlink:title="launches.controller.js">
<path fill="#ffffcc" stroke="black" d="M364,-80C364,-80 271,-80 271,-80 268,-80 265,-77 265,-74 265,-74 265,-68 265,-68 265,-65 268,-62 271,-62 271,-62 364,-62 364,-62 367,-62 370,-65 370,-68 370,-68 370,-74 370,-74 370,-77 367,-80 364,-80"/>
<text text-anchor="start" x="273" y="-68.8" font-family="Helvetica,sans-Serif" font-size="9.00">launches.controller.js</text>
</a>
</g>
</g>
<!-- src/routes/launches/launches.router.js&#45;&gt;src/routes/launches/launches.controller.js -->
<g id="edge7" class="edge">
<title>src/routes/launches/launches.router.js&#45;&gt;src/routes/launches/launches.controller.js</title>
<path fill="none" stroke="#000000" stroke-width="2" stroke-opacity="0.200000" d="M252.46,-71C253.59,-71 254.71,-71 255.84,-71"/>
<polygon fill="#000000" fill-opacity="0.200000" stroke="#000000" stroke-width="2" stroke-opacity="0.200000" points="255.52,-73.1 261.52,-71 255.52,-68.9 255.52,-73.1"/>
</g>
<!-- src/routes/planets/planets.controller.js -->
<g id="node10" class="node">
<title>src/routes/planets/planets.controller.js</title>
<g id="a_node10"><a xlink:href="src/routes/planets/planets.controller.js" xlink:title="planets.controller.js">
<path fill="#ffffcc" stroke="black" d="M360.5,-140C360.5,-140 274.5,-140 274.5,-140 271.5,-140 268.5,-137 268.5,-134 268.5,-134 268.5,-128 268.5,-128 268.5,-125 271.5,-122 274.5,-122 274.5,-122 360.5,-122 360.5,-122 363.5,-122 366.5,-125 366.5,-128 366.5,-128 366.5,-134 366.5,-134 366.5,-137 363.5,-140 360.5,-140"/>
<text text-anchor="start" x="276.5" y="-128.8" font-family="Helvetica,sans-Serif" font-size="9.00">planets.controller.js</text>
</a>
</g>
</g>
<!-- src/routes/planets/planets.router.js&#45;&gt;src/routes/planets/planets.controller.js -->
<g id="edge10" class="edge">
<title>src/routes/planets/planets.router.js&#45;&gt;src/routes/planets/planets.controller.js</title>
<path fill="none" stroke="#000000" stroke-width="2" stroke-opacity="0.200000" d="M248.4,-131C251.9,-131 255.48,-131 259.08,-131"/>
<polygon fill="#000000" fill-opacity="0.200000" stroke="#000000" stroke-width="2" stroke-opacity="0.200000" points="259,-133.1 265,-131 259,-128.9 259,-133.1"/>
</g>
<!-- src/models/launches.model.js -->
<g id="node4" class="node">
<title>src/models/launches.model.js</title>
<g id="a_node4"><a xlink:href="src/models/launches.model.js" xlink:title="launches.model.js">
<path fill="#ffffcc" stroke="black" d="M489,-110C489,-110 408,-110 408,-110 405,-110 402,-107 402,-104 402,-104 402,-98 402,-98 402,-95 405,-92 408,-92 408,-92 489,-92 489,-92 492,-92 495,-95 495,-98 495,-98 495,-104 495,-104 495,-107 492,-110 489,-110"/>
<text text-anchor="start" x="410" y="-98.8" font-family="Helvetica,sans-Serif" font-size="9.00">launches.model.js</text>
</a>
</g>
</g>
<!-- src/models/launches.mongo.js -->
<g id="node5" class="node">
<title>src/models/launches.mongo.js</title>
<g id="a_node5"><a xlink:href="src/models/launches.mongo.js" xlink:title="launches.mongo.js">
<path fill="#ffffcc" stroke="black" d="M598,-110C598,-110 514,-110 514,-110 511,-110 508,-107 508,-104 508,-104 508,-98 508,-98 508,-95 511,-92 514,-92 514,-92 598,-92 598,-92 601,-92 604,-95 604,-98 604,-98 604,-104 604,-104 604,-107 601,-110 598,-110"/>
<text text-anchor="start" x="516" y="-98.8" font-family="Helvetica,sans-Serif" font-size="9.00">launches.mongo.js</text>
</a>
</g>
</g>
<!-- src/models/launches.model.js&#45;&gt;src/models/launches.mongo.js -->
<g id="edge3" class="edge">
<title>src/models/launches.model.js&#45;&gt;src/models/launches.mongo.js</title>
<path fill="none" stroke="#000000" stroke-width="2" stroke-opacity="0.200000" d="M495.47,-101C496.59,-101 497.72,-101 498.85,-101"/>
<polygon fill="#000000" fill-opacity="0.200000" stroke="#000000" stroke-width="2" stroke-opacity="0.200000" points="498.5,-103.1 504.5,-101 498.5,-98.9 498.5,-103.1"/>
</g>
<!-- src/models/planets.mongo.js -->
<g id="node6" class="node">
<title>src/models/planets.mongo.js</title>
<g id="a_node6"><a xlink:href="src/models/planets.mongo.js" xlink:title="planets.mongo.js">
<path fill="#ffffcc" stroke="black" d="M594.5,-140C594.5,-140 517.5,-140 517.5,-140 514.5,-140 511.5,-137 511.5,-134 511.5,-134 511.5,-128 511.5,-128 511.5,-125 514.5,-122 517.5,-122 517.5,-122 594.5,-122 594.5,-122 597.5,-122 600.5,-125 600.5,-128 600.5,-128 600.5,-134 600.5,-134 600.5,-137 597.5,-140 594.5,-140"/>
<text text-anchor="start" x="519.5" y="-128.8" font-family="Helvetica,sans-Serif" font-size="9.00">planets.mongo.js</text>
</a>
</g>
</g>
<!-- src/models/launches.model.js&#45;&gt;src/models/planets.mongo.js -->
<g id="edge4" class="edge">
<title>src/models/launches.model.js&#45;&gt;src/models/planets.mongo.js</title>
<path fill="none" stroke="#000000" stroke-width="2" stroke-opacity="0.200000" d="M482.88,-110.49C492.5,-113.23 503.12,-116.25 513.18,-119.11"/>
<polygon fill="#000000" fill-opacity="0.200000" stroke="#000000" stroke-width="2" stroke-opacity="0.200000" points="512.58,-121.12 518.92,-120.74 513.73,-117.08 512.58,-121.12"/>
</g>
<!-- src/models/planets.model.js -->
<g id="node7" class="node">
<title>src/models/planets.model.js</title>
<g id="a_node7"><a xlink:href="src/models/planets.model.js" xlink:title="planets.model.js">
<path fill="#ffffcc" stroke="black" d="M485.5,-140C485.5,-140 411.5,-140 411.5,-140 408.5,-140 405.5,-137 405.5,-134 405.5,-134 405.5,-128 405.5,-128 405.5,-125 408.5,-122 411.5,-122 411.5,-122 485.5,-122 485.5,-122 488.5,-122 491.5,-125 491.5,-128 491.5,-128 491.5,-134 491.5,-134 491.5,-137 488.5,-140 485.5,-140"/>
<text text-anchor="start" x="413.5" y="-128.8" font-family="Helvetica,sans-Serif" font-size="9.00">planets.model.js</text>
</a>
</g>
</g>
<!-- src/models/planets.model.js&#45;&gt;src/models/planets.mongo.js -->
<g id="edge5" class="edge">
<title>src/models/planets.model.js&#45;&gt;src/models/planets.mongo.js</title>
<path fill="none" stroke="#000000" stroke-width="2" stroke-opacity="0.200000" d="M491.8,-131C495.31,-131 498.89,-131 502.46,-131"/>
<polygon fill="#000000" fill-opacity="0.200000" stroke="#000000" stroke-width="2" stroke-opacity="0.200000" points="502.28,-133.1 508.28,-131 502.28,-128.9 502.28,-133.1"/>
</g>
<!-- src/routes/launches/launches.controller.js&#45;&gt;src/models/launches.model.js -->
<g id="edge6" class="edge">
<title>src/routes/launches/launches.controller.js&#45;&gt;src/models/launches.model.js</title>
<path fill="none" stroke="#000000" stroke-width="2" stroke-opacity="0.200000" d="M359.32,-80.49C371.67,-83.37 385.37,-86.55 398.22,-89.54"/>
<polygon fill="#000000" fill-opacity="0.200000" stroke="#000000" stroke-width="2" stroke-opacity="0.200000" points="397.68,-91.57 404,-90.88 398.63,-87.48 397.68,-91.57"/>
</g>
<!-- src/routes/launches/launches.test.js -->
<g id="node9" class="node">
<title>src/routes/launches/launches.test.js</title>
<g id="a_node9"><a xlink:href="src/routes/launches/launches.test.js" xlink:title="launches.test.js">
<path fill="#ffffcc" stroke="black" d="M241.5,-50C241.5,-50 171.5,-50 171.5,-50 168.5,-50 165.5,-47 165.5,-44 165.5,-44 165.5,-38 165.5,-38 165.5,-35 168.5,-32 171.5,-32 171.5,-32 241.5,-32 241.5,-32 244.5,-32 247.5,-35 247.5,-38 247.5,-38 247.5,-44 247.5,-44 247.5,-47 244.5,-50 241.5,-50"/>
<text text-anchor="start" x="173.5" y="-38.8" font-family="Helvetica,sans-Serif" font-size="9.00">launches.test.js</text>
</a>
</g>
</g>
<!-- src/routes/launches/launches.test.js&#45;&gt;src/app.js -->
<g id="edge8" class="edge">
<title>src/routes/launches/launches.test.js&#45;&gt;src/app.js</title>
<path fill="none" stroke="#000000" stroke-width="2" stroke-opacity="0.200000" d="M165.16,-46.92C158.08,-49.08 151.05,-52.01 145,-56 134.51,-62.93 125.99,-74.22 120.1,-83.77"/>
<polygon fill="#000000" fill-opacity="0.200000" stroke="#000000" stroke-width="2" stroke-opacity="0.200000" points="118.31,-82.67 117.13,-88.92 121.95,-84.77 118.31,-82.67"/>
</g>
<!-- src/routes/planets/planets.controller.js&#45;&gt;src/models/planets.model.js -->
<g id="edge9" class="edge">
<title>src/routes/planets/planets.controller.js&#45;&gt;src/models/planets.model.js</title>
<path fill="none" stroke="#000000" stroke-width="2" stroke-opacity="0.200000" d="M366.9,-131C376.54,-131 386.68,-131 396.4,-131"/>
<polygon fill="#000000" fill-opacity="0.200000" stroke="#000000" stroke-width="2" stroke-opacity="0.200000" points="396.16,-133.1 402.16,-131 396.16,-128.9 396.16,-133.1"/>
</g>
<!-- src/server.js -->
<g id="node11" class="node">
<title>src/server.js</title>
<g id="a_node11"><a xlink:href="src/server.js" xlink:title="server.js">
<path fill="#ffffcc" stroke="black" d="M64,-171C64,-171 22,-171 22,-171 19,-171 16,-168 16,-165 16,-165 16,-159 16,-159 16,-156 19,-153 22,-153 22,-153 64,-153 64,-153 67,-153 70,-156 70,-159 70,-159 70,-165 70,-165 70,-168 67,-171 64,-171"/>
<text text-anchor="start" x="25" y="-159.8" font-family="Helvetica,sans-Serif" font-size="9.00">server.js</text>
</a>
</g>
</g>
<!-- src/server.js&#45;&gt;src/app.js -->
<g id="edge11" class="edge">
<title>src/server.js&#45;&gt;src/app.js</title>
<path fill="none" stroke="#000000" stroke-width="2" stroke-opacity="0.200000" d="M53.87,-152.74C64.18,-143.06 80.52,-127.73 92.74,-116.26"/>
<polygon fill="#000000" fill-opacity="0.200000" stroke="#000000" stroke-width="2" stroke-opacity="0.200000" points="93.89,-118.06 96.83,-112.42 91.02,-115 93.89,-118.06"/>
</g>
<!-- src/server.js&#45;&gt;src/models/planets.model.js -->
<g id="edge12" class="edge">
<title>src/server.js&#45;&gt;src/models/planets.model.js</title>
<path fill="none" stroke="#000000" stroke-width="2" stroke-opacity="0.200000" d="M70.41,-167.69C128.72,-179.15 272.32,-201.29 386,-169 402.04,-164.44 418,-154.38 429.64,-145.75"/>
<polygon fill="#000000" fill-opacity="0.200000" stroke="#000000" stroke-width="2" stroke-opacity="0.200000" points="430.76,-147.54 434.23,-142.21 428.2,-144.21 430.76,-147.54"/>
</g>
</g>
</svg>
